<svg id="圖層_1" data-name="圖層 1" xmlns="http://www.w3.org/2000/svg" xmlns:xlink="http://www.w3.org/1999/xlink" viewBox="0 0 611.24 75.4"><defs><style>.cls-1{fill:url(#未命名漸層_83);}.cls-2{fill:url(#未命名漸層_83-2);}.cls-3{fill:url(#未命名漸層_83-3);}.cls-4{fill:url(#未命名漸層_83-4);}.cls-5{fill:url(#未命名漸層_83-5);}.cls-6{fill:url(#未命名漸層_83-6);}.cls-7{fill:url(#未命名漸層_83-7);}.cls-8{fill:url(#未命名漸層_83-8);}.cls-9{fill:url(#未命名漸層_83-9);}</style><linearGradient id="未命名漸層_83" x1="17" y1="366.69" x2="604.05" y2="393.25" gradientUnits="userSpaceOnUse"><stop offset="0" stop-color="#e60012"/><stop offset="0.2" stop-color="#f39800"/><stop offset="0.4" stop-color="#cb744a"/><stop offset="0.6" stop-color="#13ae67"/><stop offset="0.8" stop-color="#036eb8"/><stop offset="1" stop-color="#601986"/></linearGradient><linearGradient id="未命名漸層_83-2" x1="17.1" y1="364.39" x2="604.15" y2="390.95" xlink:href="#未命名漸層_83"/><linearGradient id="未命名漸層_83-3" x1="17.26" y1="360.86" x2="604.31" y2="387.42" xlink:href="#未命名漸層_83"/><linearGradient id="未命名漸層_83-4" x1="17.36" y1="358.79" x2="604.41" y2="385.35" xlink:href="#未命名漸層_83"/><linearGradient id="未命名漸層_83-5" x1="17.51" y1="355.42" x2="604.56" y2="381.98" xlink:href="#未命名漸層_83"/><linearGradient id="未命名漸層_83-6" x1="17.74" y1="350.19" x2="604.8" y2="376.75" xlink:href="#未命名漸層_83"/><linearGradient id="未命名漸層_83-7" x1="17.84" y1="348.04" x2="604.89" y2="374.6" xlink:href="#未命名漸層_83"/><linearGradient id="未命名漸層_83-8" x1="17.99" y1="344.82" x2="605.04" y2="371.38" xlink:href="#未命名漸層_83"/><linearGradient id="未命名漸層_83-9" x1="18.11" y1="342.08" x2="605.16" y2="368.65" xlink:href="#未命名漸層_83"/></defs><path class="cls-1" d="M25.32,347.43c-1-.38-2.09-.75-3.22-1.13-.7-.21-.64-.59.16-1.13a12.48,12.48,0,0,1,5.39-2.09q3.78-7.87,3.78-9.89a1.37,1.37,0,0,1,1.29-1.45,7.67,7.67,0,0,1,2.42.24,6.27,6.27,0,0,1,4.26,4q.48,1.46,0,2a50.26,50.26,0,0,0-4.26,5.48q5.63,1.44,12.14,9.89a61.91,61.91,0,0,0,13.68,12,39.85,39.85,0,0,1,12.63,11.26c.75,1,.32,1.45-1.28,1.29a104,104,0,0,1-11.67-2.17Q54,373.26,44.79,359a63.57,63.57,0,0,0-5.23-6.92q-2.49-2.65-8-3.13c-1.13,1.82-2.37,3.89-3.71,6.19Q13.17,380.58,3.2,382q-3.7.57-1.77-1.45A137,137,0,0,0,20.9,354.91Q23.15,351,25.32,347.43Zm7.8,26.06c-.1-1.6-.48-2.49-1.12-2.65q-7.24-1.93-8.45-4.83c-.32-.53-.46-.88-.4-1,.21-.33.88-.51,2-.57q4.66-.39,9.81-5.47a2.33,2.33,0,0,1,.89-.64q4.66,0,6.11,2.17l.08.08c1,1.83.73,4-.88,6.44q-.89,1.13-1.85,7.4a7.51,7.51,0,0,1,1,.56q2.66,2.42,2.89,4.43.16,2.49-5.47,8.53a7.24,7.24,0,0,0-.08.88,11.7,11.7,0,0,1-.56,2.74c-.06.05-.08.16-.08.32a31.65,31.65,0,0,0,4.74-.81,3.26,3.26,0,0,1,2.1-.08,8.54,8.54,0,0,1,5.79,5.23,3.1,3.1,0,0,1,.16,1.93,1.29,1.29,0,0,1-1.13.89,10.1,10.1,0,0,1-2.33-.16,1.34,1.34,0,0,0-.48-.08,29.16,29.16,0,0,0-20.28,3.54,2.79,2.79,0,0,1-2.81.08A8.83,8.83,0,0,1,18.24,398q-.57-1.53,0-2a2,2,0,0,1,1.53-.4,7.28,7.28,0,0,0,2.81-.73,16.44,16.44,0,0,1,4.35-1.28c.37-.49.72-.91,1.05-1.29-.86-1.13-3.22-3.24-7.08-6.36q-2.58-2.25-2.26-4.26a3,3,0,0,1,1.29-1.85,10.38,10.38,0,0,1,4.34-1.53A79.44,79.44,0,0,0,33,375.51C33,374.81,33.07,374.14,33.12,373.49Zm-1.69,9.42a30.23,30.23,0,0,1-5.95-.08,10.09,10.09,0,0,0-3.94-.16,1.44,1.44,0,0,0-1.05,1.77q6.36,3.69,10.46,3.7a13.28,13.28,0,0,1,.89-1.77c.16-1.18.26-2.28.32-3.3A.94.94,0,0,0,31.43,382.91Z" transform="translate(-0.76 -330.44)"/><path class="cls-2" d="M119.52,337.85a21.42,21.42,0,0,1,6.84,8.37q1,2,1,6.36-.89,23.66.56,30.17.72,11.5-2.9,18c-.48.8-.91,1.18-1.28,1.12s-.92-.48-1.29-1.28a11.32,11.32,0,0,1-1.21-3.38c-.32,0-.72,0-1.21-.08q-12.7-3-22.44-.81-8.3,1.7-9.58,2.42a2.22,2.22,0,0,1-1.28.56,4.55,4.55,0,0,1-1.85-.72A26.11,26.11,0,0,1,81.31,395q-3.54-3.71-2.74-17.22.32-7.56.24-24.54,0-3,2.25-3.06c.81,0,1.21.27,1.21.81a3.39,3.39,0,0,1-.4.48c-1,.38-.64,2,1.13,4.91q2.25,3.61,1,9.49a1.86,1.86,0,0,0-.24,1,55,55,0,0,0-.4,23.89c.16.91.48,1.48,1,1.69a3.26,3.26,0,0,0,1.61.24,126.92,126.92,0,0,0,16.33-2.57,50.45,50.45,0,0,1,13.52-.73,6.77,6.77,0,0,1,4.75,3.3,1.15,1.15,0,0,1,.16.32,25.88,25.88,0,0,0,.56-4.26q1.29-38.62-1.61-43.53c-1.77-2.84-3.56-4.34-5.39-4.5q-9.33,0-14.48,3c-1.93,1-3.3,1.5-4.1,1.44q-5.55.33-8.21,1.85c-.8.38-1.1.38-.88,0a31.81,31.81,0,0,1,4.74-5.71q3.94-3,5.88-3,5.39-2.34,18.18-2.1A8.93,8.93,0,0,1,119.52,337.85ZM93.86,378.72a56.57,56.57,0,0,1,6.84-2.57c1-.32,1.52-.29,1.52.08,0,0,0,0,0,.08q-1.36,3.13-14.48,10.86c-.75.38-1.23.08-1.45-.88a13.16,13.16,0,0,1-.56-3.78c0-1.08.43-1.59,1.13-1.53S90,380.33,93.86,378.72Zm7.48-13.35a4,4,0,0,1,1.13,2.33c0,.06-.57,1-1.69,2.74-.59.8-.81,1.45-.65,1.93.49.43.73.8.73,1.12q0,.74-.57.81a22.74,22.74,0,0,0-9,2.33q.41,2.25-2.33-.24a10.32,10.32,0,0,1-1.77-4.91c-.59-2.89-.22-5.15,1.13-6.76,1.07-1.12,1.5-1.09,1.28.09a2.8,2.8,0,0,0-.08,1.28q3.3-1.36,6.76-3C98,362.45,99.68,363.22,101.34,365.37Zm8.37,5.15a12.16,12.16,0,0,1,.88-1.77q3.14-6.6,2.09-7.32c-.48-.38-.61-.73-.4-1.05a3.22,3.22,0,0,1,1.45-.16,5.9,5.9,0,0,1,2.49.64c1.61.92,2.52,1.69,2.74,2.34q-.09.32-4,6.83-1.62,2.66-3.3,5.07a37.76,37.76,0,0,0,2.25,3.78c.37.54.64.81.8.81.92.38,1.94-1.72,3.06-6.28q.16-.24.24-.24c.16,0,.24.16.24.49a47.09,47.09,0,0,1,.09,7.24,11.53,11.53,0,0,0,.16,3.46,23.31,23.31,0,0,1,.24,3.7q.07,1.13-.24,1.2c-.22.16-.65.06-1.29-.32q-4.18-2.65-8.29-10.38a33,33,0,0,1-7.72,7.16c-.54.38-.91.41-1.13.08a1.82,1.82,0,0,1-.08-1.44q1.05-4.59,2.33-4.59,1.22-.24,4.83-5.07a159.31,159.31,0,0,1-5.47-15.77c-2.25.65-4.69,1.45-7.32,2.42a2,2,0,0,1-1.93-.49A16.08,16.08,0,0,1,89,358.05c-.43-.59-.62-1-.56-1.21s.48-.43,1.12-.48a20.56,20.56,0,0,0,7-1.45,21.21,21.21,0,0,1,3.78-1.29c-1.34-4.66-2.33-6.33-3-5-.32.49-.51.57-.57.25a3.35,3.35,0,0,1,.25-1.61,1.9,1.9,0,0,1,1.2-1.29,7.52,7.52,0,0,1,3,.88,9.19,9.19,0,0,1,3.38,2.42,4.57,4.57,0,0,1,.88,3.14,30.36,30.36,0,0,1,6.2-.65,4.44,4.44,0,0,1,3.62,1.45,3.06,3.06,0,0,1,.4,2.49,1.17,1.17,0,0,1-.8.41,57.26,57.26,0,0,0-8.93,1.61Q108.26,367.3,109.71,370.52Zm-19,2.17a8.83,8.83,0,0,0,6.19-4.59c.11-.32.14-.5.08-.56a.85.85,0,0,0-.88,0c-3,.86-5.1,1-6.28.48.06.16.11.35.17.57C90.32,370.14,90.56,371.51,90.72,372.69Zm17.22-26.31a5.67,5.67,0,0,1-1.13-.56,1.11,1.11,0,0,1-.64-.89,1.13,1.13,0,0,1,.64-.8,4,4,0,0,1,1.85-.48q4.26-.16,5.55.64a8.47,8.47,0,0,1,1.93,3.54q.57,1.69,0,2-.89.41-4-1.37A22.67,22.67,0,0,0,107.94,346.38Z" transform="translate(-0.76 -330.44)"/><path class="cls-3" d="M167.62,369c-.21.54-.48.8-.8.8a4.38,4.38,0,0,1-2-1.2,7,7,0,0,1-2.42-2.9,6.41,6.41,0,0,1-.56-3.54,10.45,10.45,0,0,0-.72-3.86c-1-3.59-.73-6.2.72-7.81q-7.56,2.58-11.42,6.2c-1.08,1-2.12.86-3.14-.32q-2.82-3.06-3.14-3.54c-.16-.43.19-.75,1.05-1a74.46,74.46,0,0,0,8.28-2.81,40.11,40.11,0,0,1,9.66-3.54l.24-.25q6.36-2.89,6.84-5.3,0-2.58-4.67-6.2c-.32-.48-.21-.72.32-.72a18.79,18.79,0,0,1,7.4,1.44,6.61,6.61,0,0,1,3.46,4.19,9.06,9.06,0,0,1-.08,4,28.22,28.22,0,0,1,4.83-.56q10.93-1,12.15-.73a8.34,8.34,0,0,1,4.67,4.91c.26.81-.11,1.18-1.13,1.13q-.17-.09-.24,0-18-2.58-33.23,2.49a.93.93,0,0,0-.16.32q-.89,1.22.8,3.46,6-1.84,12.07-4.34,3.23-1.12,6.36,2.81c1.39,1.77,1.69,3.14.88,4.11-2.25,3.48-3.27,5.74-3,6.76a2.68,2.68,0,0,1,.88,1.52c-.05.76-.35,1.1-.88,1.05a31.71,31.71,0,0,0-12.88,1.85A10.49,10.49,0,0,1,167.62,369Zm2.26,8.37a8.17,8.17,0,0,1-4.43.64q-5.14-.17-8,2.82a46,46,0,0,1,.72,8.44,51.85,51.85,0,0,0,.16,7.24c.21,1.72.16,2.85-.16,3.38s-.59.86-1,.81-1.07-.57-1.93-1.53a13.76,13.76,0,0,1-3.46-6.28,12,12,0,0,1,.08-6.59,20.34,20.34,0,0,0,.16-7.41,8.59,8.59,0,0,1,.17-4.1,4.19,4.19,0,0,1,1.69-2.33c.53-.43.88-.56,1-.4s0,.4-.4.88c-.59.64-.38,1.69.64,3.14a26.51,26.51,0,0,1,1.85,3.78,16.17,16.17,0,0,1,2.58-2.74q6.1-5,15.77-6.91,10.69-2.1,14.16-.89c3.64,1.13,5.73,2.25,6.27,3.38a4.17,4.17,0,0,1,.08,2.49,81.11,81.11,0,0,0-1.61,11.35q-.41,2.82-.88,6a17.3,17.3,0,0,1-5.23,10.3,1.21,1.21,0,0,1-.89.32l-.4-.08q-7.32-7.32-8.29-9a25.73,25.73,0,0,0-10,1.05,10.75,10.75,0,0,1,.16,1.52c0,.54-.08.84-.24.89s-.48.21-1,.16a2.29,2.29,0,0,1-1.45-.64,3.24,3.24,0,0,1-.8-2q-.64-6.84-2.09-9.74a9,9,0,0,1-1-3.86c0-1.5.19-2.15.57-1.93a2.12,2.12,0,0,0,1,.32c1.61.27,2.66.72,3.14,1.37a3.89,3.89,0,0,1,.4,1.61c2.42-1.29,4.85-2.68,7.32-4.19,1.83-1,3.81-.45,6,1.69q2,2.1,1.28,3.78c-1.93,3.38-2.73,5.56-2.41,6.52a14.32,14.32,0,0,0,.48,1.93,26,26,0,0,0,4.67,2.58c.59.27,1,.29,1.21.08a2.27,2.27,0,0,0,.88-1.37.86.86,0,0,1,.24-.64q4.43-14.65,2.5-18.75a2.39,2.39,0,0,0-2.82-1.45q-7.49,1.36-10.62,2.17A39.61,39.61,0,0,0,169.88,377.36Zm-3.71-20.76a17.69,17.69,0,0,1,.89,5.47,10.92,10.92,0,0,0,3.94-.4q3.54-1.05,4.11-2.09a19.1,19.1,0,0,0,2-3.62c.21-.75.24-1.16.08-1.21-.27-.22-.81-.16-1.61.16A22.06,22.06,0,0,1,166.17,356.6Zm1.45,29a29,29,0,0,1,.65,5.31c3.11-.1,5.15-.75,6.11-1.93a18.87,18.87,0,0,0,1.61-4.5c.21-.86.21-1.32,0-1.37a2.45,2.45,0,0,0-1.21.24Q170.76,385.88,167.62,385.64Z" transform="translate(-0.76 -330.44)"/><path class="cls-4" d="M236.72,373.9c-1.93.59-4.18,1.36-6.76,2.33a7.52,7.52,0,0,1-2.89.56c.05.11.1.24.16.41a4.64,4.64,0,0,1,.4,2.57c-.21.43-.43.67-.64.72a3.89,3.89,0,0,1-1.69-.8,16.32,16.32,0,0,1-5.39-6.52,15,15,0,0,1-1.45-7.72,24.17,24.17,0,0,0-1.61-8.69,10.45,10.45,0,0,1-.56-3.62,5.57,5.57,0,0,1,1.12-2.33q.57-.65.81-.57c.16.11.08.41-.24.89-.38.64,0,1.53,1.12,2.65a22,22,0,0,1,3.62,5q2.42-7.32,14.73-10.06a69.58,69.58,0,0,0-.41-8.52c-.16-.81-.48-1.18-1-1.13a3.7,3.7,0,0,0-1.53.72c-.48.38-.91,0-1.29-1.12a6,6,0,0,1,.08-3.46,4.63,4.63,0,0,1,1.85-2.74,5,5,0,0,1,5.23.08,3.8,3.8,0,0,1,1.45,1.13q1.69,1.69,1.69,13.6c1.72-.38,3.41-.67,5.07-.89a16.38,16.38,0,0,0,6-1.85,4.58,4.58,0,0,1,3.95.24q7.88,4.51,8.36,9.58a3.1,3.1,0,0,1-.32,1.52.91.91,0,0,1-.64.33,4.3,4.3,0,0,0-1.45,1q-6.27,5.31-11.59,9.17a4.18,4.18,0,0,1,2.82,4.19c0,1.34-.83,1.93-2.66,1.77a31.72,31.72,0,0,0-9.89-.08,120.61,120.61,0,0,1-2.09,28.8c-.7,3-1.32,4.59-1.85,4.75-.22-.06-.51-1.56-.89-4.51q-.32-3.94-1.29-14.88A95.62,95.62,0,0,1,236.72,373.9Zm.89-18.19q-2.82,1.21-4.59,2-7.56,3-9,4.34a37.58,37.58,0,0,1,1.45,6.68,18.09,18.09,0,0,0,.32,2.41q1-1.12,11.26-3.54Q237.37,361.59,237.61,355.71Zm5.55,7.89c.59.43,1.21.83,1.85,1.21,3.22-2.42,5.34-4.05,6.36-4.91a37.78,37.78,0,0,0,4.82-6.76c.59-1,.7-1.72.32-2.09s-1.2-.46-2.49-.24a58.9,58.9,0,0,0-10.46,2.65C243.51,358.4,243.37,361.78,243.16,363.6Z" transform="translate(-0.76 -330.44)"/><path class="cls-5" d="M309,395.86a45.27,45.27,0,0,1-.95,8.69q-.39,1.53-.87,1.05c-1.79-2.37-2.69-5.5-2.69-9.42q-11.58.88-18.58,5.8c-1.24.85-2.28.61-3.14-.73a39.78,39.78,0,0,1-2.81-4c-.16-.54.24-.83,1.2-.89a80.8,80.8,0,0,0,8.69-1.93,69.64,69.64,0,0,1,14.81-3.14v-3a41.38,41.38,0,0,0-5.8,1.77,2.56,2.56,0,0,1-2.09-.08.72.72,0,0,1-.24.08,5.91,5.91,0,0,1-2.25-1.13,7.36,7.36,0,0,1-2.74-6.19,7.74,7.74,0,0,0-.56-3.7,8.31,8.31,0,0,1-.4-4,4.64,4.64,0,0,1,1.28-2.65c.43-.43.73-.62.89-.57v.09a16.2,16.2,0,0,1,6.43-3.14c1.08-.38,1.64-.67,1.69-.89a21,21,0,0,0-3.94-1.93c-1.12-.64-1.26-1-.4-1,1.34.53,3.86.24,7.56-.89a8.86,8.86,0,0,0-.72-2.17,15.78,15.78,0,0,1-7.81,1.21c-2.14-.33-3.54-.17-4.18.48a29.87,29.87,0,0,1-1.69,4.18,66.79,66.79,0,0,0-3.06,6c-1.18,2.3-2,2.71-2.33,1.2q-1.93-6.44,0-8.93a29.53,29.53,0,0,0,3.38-5.79,21.45,21.45,0,0,1,1.13-3.7q.56-1.29,1.77,1a13.44,13.44,0,0,1,1,2.5q3.06-1.77,10.14-3,14.16-2.82,15.93-2.81,6.75-.74,8.45.24c3.32,2,5.47,3.64,6.43,5s1.26,2.58.73,3.54c-.22.43-1,.65-2.26.65a19.66,19.66,0,0,0-5.39,1,41.63,41.63,0,0,1-12.95,1.29,13.81,13.81,0,0,0-2.9.73c-.1.8-.19,1.87-.24,3.21a13,13,0,0,1,2.74-.32q8-.24,10.46,3.38a6.33,6.33,0,0,1,1.12,5.15,2,2,0,0,1-.56,1.21,6.94,6.94,0,0,0-1.69,2.17,15.53,15.53,0,0,1-3.38,3.46,4.12,4.12,0,0,1,.89,1.61,1.39,1.39,0,0,1-.24,1.12,2,2,0,0,1-1.45,0,20.89,20.89,0,0,0-8.45-.24v3.46c3.11-.27,6.54-.37,10.3-.32q11.42.24,12.47.72,3.14,1.53,4.42,5.88c.27.91-.16,1.26-1.28,1a8,8,0,0,0-1.77-.32,88.61,88.61,0,0,0-23.66-2.09A.66.66,0,0,0,309,395.86Zm6.92-64q4.67.65,8.77,6c.59.65.56,1.45-.08,2.42a20.52,20.52,0,0,0-2.58,4.66q-2.73,6.76-5.15,7.57c-1.18.37-1.95.29-2.33-.25a2.25,2.25,0,0,1-.4-.64q-12.72,2.75-15.45,3.7c-.86.32-1.47,0-1.85-1-.21-.49-.4-.91-.56-1.29q-2.65-2.18-2.9-4.35a37.43,37.43,0,0,0-1.45-6.59,15.5,15.5,0,0,1-1.44-3.38c-.27-.81.32-.94,1.77-.4a3.65,3.65,0,0,1,1.52.72,1.16,1.16,0,0,1,.65-.72,24.71,24.71,0,0,1,5.87-3.87A42,42,0,0,1,310.65,332,18,18,0,0,1,315.88,331.82Zm-23.49,41c-.38.7,0,1.69,1.2,3a6.2,6.2,0,0,1,.73.88q2.32-2.9,3.78-3.22,3.94-2.57,6.6-2.57c-.06-.8-.08-1.47-.08-2-1.45.43-3,.83-4.59,1.21A20.12,20.12,0,0,0,292.39,372.85Zm6.75-33.47a13.28,13.28,0,0,0-4.26.4.24.24,0,0,1,.16.08,10.71,10.71,0,0,1,3,6.44,22.6,22.6,0,0,0,.72,3.38,7.37,7.37,0,0,1,.89-.08,1.3,1.3,0,0,1,.72-.24,10.66,10.66,0,0,0,2.33-1.45c.54-.54.78-.89.73-1.05a2.37,2.37,0,0,0-1.29-.72,5.55,5.55,0,0,1-2.49-1.45c-.76-.86-.7-1.47.16-1.85A56.39,56.39,0,0,1,311.61,340q1.45-.09,1.77.72a11.53,11.53,0,0,1,.57,1.53c.05.48-.11.75-.48.8q-.25,0-7.81,5.31a.69.69,0,0,1,.48-.16q6.44-1.77,8-.8v.08a39.47,39.47,0,0,0,3.14-10.46c.16-1,.05-1.64-.33-1.85a2.59,2.59,0,0,0-2.33-.56,25.46,25.46,0,0,0-7.64,2.73A14.31,14.31,0,0,1,299.14,339.38Zm5.64,36.21a23.89,23.89,0,0,1-4.19,1,10.88,10.88,0,0,0-5.71,1.05,10.19,10.19,0,0,1,1.29,4.42,18.59,18.59,0,0,0,.64,3.78,2.77,2.77,0,0,0,.73-.08,31.68,31.68,0,0,1,6.27-1.85l.81-.8v-.73a3.36,3.36,0,0,0-1.37-.08,10.26,10.26,0,0,1-3.3-.56c-1.18-.53-1.37-1.21-.56-2a40,40,0,0,1,5.39-1.61Zm2.89-15.53a4.36,4.36,0,0,1,1.45,1.53,4.65,4.65,0,0,1,2.09-.41c1.93.17,3.25.89,3.94,2.18a1.48,1.48,0,0,1,.09.8q5.46-1.85,7.88-4.5c.91-.91,1.26-1.64,1.05-2.18-.17-.26-.92-.37-2.26-.32A44.09,44.09,0,0,0,307.67,360.06Zm1.45,15.61v1.53a8.62,8.62,0,0,1,2.25-.33c1,0,1.64.27,1.85.81a16.24,16.24,0,0,1,.57,1.61c.1.53-.08.83-.57.88q-1.28.16-4.34,2.34V383a18.28,18.28,0,0,1,2.49-.16c1.08,0,1.88,0,2.42-.08a13.22,13.22,0,0,0,3.62-7.49,2.55,2.55,0,0,0-.16-1.6,1.88,1.88,0,0,0-1.61-.41q-3.39.48-6.36,1.05c-.16,0-.21,0-.16.08Z" transform="translate(-0.76 -330.44)"/><path class="cls-6" d="M345.72,383.87c-1.08.7-2,.46-2.9-.72a32.57,32.57,0,0,1-3.14-4.51c-.86-1.39-.69-2.09.49-2.09a43.65,43.65,0,0,0,11.66-3.14q.17-2.32,1.93-13.67,1-11,7.32-17.14c1-1.13,1.8-2,2.34-2.65.69-1.45-.24-3.46-2.82-6-.54-.7-.7-1.23-.48-1.61a1.89,1.89,0,0,1,1.85-.24q6,1.53,9.17,8.37a4.58,4.58,0,0,1-.08,3.06,1.24,1.24,0,0,1-.16.24,4.88,4.88,0,0,1,2.57.8,6.79,6.79,0,0,1,3.3,6.84,94.56,94.56,0,0,0-.72,11.83,1,1,0,0,1,.88.08,3.3,3.3,0,0,1,1.37,1.28c.43.7.62,1.16.56,1.37s-.32.59-.8.81a8,8,0,0,0-2,1c0,3.17.11,6.14.32,8.93q.81,14.25-2.33,22.21Q373.56,400,373,400c-.21,0-.51-.26-.88-.8a59.32,59.32,0,0,1-7-12.95,4.89,4.89,0,0,1-3.95,2.33,7.08,7.08,0,0,1-4.82-2.33c.21,1.82.43,3.78.64,5.87q.24,1.93-1,2.49a1.7,1.7,0,0,1-2.1-.88q-2.25-4.26-2.33-13.28Q347.5,382.67,345.72,383.87Zm17.86-9.81q-4.18,2.18-7.4,3.94.07,5.31.08,6.76a11.72,11.72,0,0,0,5.39-.73,4.4,4.4,0,0,0,1.12-2.81C363.1,378.91,363.36,376.53,363.58,374.06Zm0-16.82c-.38-1.34-.67-2-.89-1.93s-.32.59-.48,1.45c-.21,1.18-.43,1.34-.64.48-.54-1.71-.41-3,.4-3.78a2.35,2.35,0,0,1,1.93-1,3.46,3.46,0,0,1,2.09.32,4.72,4.72,0,0,1,1.53,1.36,8,8,0,0,1,.8,4.27c-.16,2.47-.32,5-.48,7.64a27,27,0,0,1,3.7-1.53V351.29c-.11-.48-.19-.89-.24-1.21q-1.37-2.81-2.33-1.53-4.91.74-6.6,2.5a1.61,1.61,0,0,1-.48-.08c-.06-.16-.06-.27,0-.32a24.27,24.27,0,0,1,3.94-5.23,7.13,7.13,0,0,0-3.06.72,10.82,10.82,0,0,0-3.86,2.65q-1.77,4.35-.56,6.28,1,2.9-.24,8.45-.81,4-1.29,7.64c3.49-1.77,5.87-2.9,7.16-3.38a9,9,0,0,1,.08-1.2C364.11,361.7,364,358.58,363.58,357.24ZM371.46,370c-1.55.76-2.92,1.48-4.1,2.18q-1.22,10.14-1.77,13a26.25,26.25,0,0,0,3.62,4.75c.43.43.75.56,1,.4.42-.21.67-.72.72-1.53Q371.38,380.73,371.46,370Zm8.85-20.67c.27-.38,1-.4,2.09-.08,2.85.91,4.67,2,5.48,3.38.8,1.71.8,4.13,0,7.24q-.81,2.89-1.86,9-.72,3.46-2.65,1.93-3.78-3.06-.8-12.07c.26-1.88-.49-4.5-2.26-7.88A1.9,1.9,0,0,1,380.31,349.36Zm25.18,27.51c1.83,2.2,2.31,3.95,1.45,5.23q-4,7.25-3.78,8.45a4.73,4.73,0,0,0-.16,1.69,3.66,3.66,0,0,1,1,1.77c0,.8-.35,1.21-1.05,1.21a34.18,34.18,0,0,0-14.32,1.93,2.8,2.8,0,0,1-.08.64c-.27.65-.59,1-1,1-.53,0-1.31-.49-2.33-1.45a10.89,10.89,0,0,1-3.38-5.07,10.17,10.17,0,0,1-.48-5.63,15.23,15.23,0,0,0-.48-6.36q-1-4.42,1.2-6.59c.49-.38.81-.54,1-.49s.05.43-.32,1c-.49.7-.16,1.72,1,3.06a10.66,10.66,0,0,1,1.77,2.57q5.79-2.65,11.91-5.87Q401.15,372.21,405.49,376.87ZM397,380.74q-5.72,3-10.14,2.81a18.84,18.84,0,0,1,.64,4.43,17.61,17.61,0,0,0,.24,2.89,15,15,0,0,0,4.11-.56c2.46-.86,3.89-1.64,4.26-2.33a20.34,20.34,0,0,0,2.58-5.72c.26-1,.29-1.61.08-1.77A2,2,0,0,0,397,380.74Zm-7.65-32a.63.63,0,0,1,.16-.56,36,36,0,0,1,2.58-3.86q2.49-3.94,3.46-4a6.24,6.24,0,0,1,2-.24c1.82.37,3.49,2.09,5,5.14a5,5,0,0,1,.24,4,48.85,48.85,0,0,0-2.66,7.4q-1,3.7,2.58,4.5a5.84,5.84,0,0,1,3.38,2.18,5.15,5.15,0,0,1,1.53,3.7c-.43.64-.84.94-1.21.88a29.77,29.77,0,0,0-4.83.73,32.94,32.94,0,0,1-10.46.56c-.27-.11-.37-.19-.32-.24.05-.27.27-.4.65-.4,4.55-1.5,7-2.66,7.32-3.46q-2.42-2-4.59-3.78-.48-2,1.45-10a3.81,3.81,0,0,0-.48-3.3c-.06-.27-.33-.24-.81.08-1.77.27-3.24.51-4.42.72C389.56,348.79,389.38,348.77,389.32,348.71Z" transform="translate(-0.76 -330.44)"/><path class="cls-7" d="M420.69,377.92a2.72,2.72,0,0,1-2.49-.64,8.51,8.51,0,0,1-2.74-3.62c-.8-1.67-.62-2.5.56-2.5a59.4,59.4,0,0,0,14.24-2.25q4.28-1.37,12.56-3.14.15-.72,1-8.45a29.74,29.74,0,0,0-6.76,2.9,6.89,6.89,0,0,1-4.34,1.37q-2.82-.24-3.54-4.59c-.38-2.25-.32-3.56.16-3.94q7.08-2.34,4.67-9.82c-.17-.59-.22-.91-.17-1s.41-.08.89.08a5.36,5.36,0,0,1,2.82,2.41,9.88,9.88,0,0,1,1.12,6.68.79.79,0,0,0,.16.72,1.34,1.34,0,0,0,1.21.08,29.34,29.34,0,0,1,4.34-1.6q.57-10.38-.72-12.8a8.2,8.2,0,0,1-1.53-3.78c-.16-2.3.27-3.11,1.29-2.41a3.83,3.83,0,0,0,2.33.72,3.21,3.21,0,0,1,2.42.89,13,13,0,0,1,2.57,4.42q.24,1.21-.24,11.35c1.39-.38,2.92-.73,4.58-1.05,1.08-.27,2.2.24,3.38,1.53,1.08,1.13,1.53,2.12,1.37,3s-.51,1.28-.72,1.28c-3.49.59-6.55,1.24-9.17,1.93a57.44,57.44,0,0,0-.33,8.69,99.37,99.37,0,0,1,11.59-2.09c1.66-.27,3.73-.72,6.19-1.37a10.71,10.71,0,0,1,3.3,2.18q2.82,2.89,2.58,5.06a2.78,2.78,0,0,1-.81,1.61,4,4,0,0,1-2.65-.08q-2.5-.48-8.85.57a87.73,87.73,0,0,0-11.27,2.65q-.4.09-.48,0c-.05-.11,0-.24.24-.4a56,56,0,0,1,6-2.5c1.66-.53,2.49-1,2.49-1.36s-1.15-.54-3.46-.16Q440.81,370.6,420.69,377.92Zm19.15,24.14c-.16.58-.43.88-.81.88a4.62,4.62,0,0,1-2.17-1.21,10.92,10.92,0,0,1-3.78-5,12.08,12.08,0,0,1-.8-5.8,15.92,15.92,0,0,0-.89-6.43,10,10,0,0,1-.4-4.43,5.59,5.59,0,0,1,1.45-2.81c.53-.49.88-.7,1-.65.22.22.14.59-.24,1.13q-.81,1.13,1.13,3.3c.1.11.24.27.4.48a.07.07,0,0,1,.08-.08q8-2.65,16.49-6.36,4.11-1.68,8.29,3.46a.51.51,0,0,1,.24.32c1.61,2,2,3.79,1.13,5.23q-4.51,8-3.3,10.14a3.4,3.4,0,0,1,1.13,2.17c0,1-.43,1.51-1.29,1.45a47.57,47.57,0,0,0-17.62,2.34A3.86,3.86,0,0,1,439.84,402.06Zm-3.06-17.87a1.54,1.54,0,0,0-.32-.08,17.66,17.66,0,0,1,2.09,8.93,21,21,0,0,0,5.55-.4q4.83-1.27,5.8-2.57a19.83,19.83,0,0,0,2.65-6c.27-1.07.29-1.69.08-1.85-.38-.26-1.07-.21-2.09.16Q441.61,386.37,436.78,384.19Z" transform="translate(-0.76 -330.44)"/><path class="cls-8" d="M499.12,385.56c.27,1.77.57,3.33.89,4.67a33,33,0,0,0,3.62.16,20.93,20.93,0,0,0,5.23-4.91c1.18-1.77,1.66-2.84,1.45-3.22a4.7,4.7,0,0,0-2.9-.72,13.65,13.65,0,0,1-5.55-1.77q-3.06-1.84-.57-3.78,11.11-4.59,17.22-5.39c1.82-.22,3,.19,3.54,1.2a15,15,0,0,1,1.21,2.82,1.08,1.08,0,0,1-.65,1.53,11.11,11.11,0,0,0-3.37,2.73q-2.75,2.65-12.88,11.11c.65-.16,1.37-.32,2.18-.49q11.18-2.89,14.32-2.33c2.19.59,3.27,1.56,3.21,2.9a3.09,3.09,0,0,0,1.45-1.93,1.84,1.84,0,0,1,.32-.81q6.69-20.26,4.51-25.66a2.46,2.46,0,0,0-2.74-1.29q-10.93,2.42-14.4,4.18Q511,366.26,509.5,366a12.91,12.91,0,0,0-10.22,3.14q-.88.72-1,.48a2,2,0,0,1,.08-.56,25.71,25.71,0,0,1,9.49-9,40.11,40.11,0,0,1,9.66-3.78q10.94-2.89,14.88-1.45,7.32,2.18,8.53,4.83a5.68,5.68,0,0,1-.08,3.38,57.63,57.63,0,0,0-1.53,6.51q-3.3,15.93-4.75,21.72a22.75,22.75,0,0,1-6.51,8.61,1.79,1.79,0,0,1-1.21.41c-.22-.06-.43-.27-.64-.65a17.65,17.65,0,0,0-1.77-2.41,20.55,20.55,0,0,1-2.82-4.27,81.76,81.76,0,0,0-16.25,3.87,6.62,6.62,0,0,1-2.34.32q-7.23-2.41-12.39-17.38a35.42,35.42,0,0,1-2-15.37c.32-3.7,1.08-6.43,2.26-8.2.37-.49.67-.73.88-.73a28.08,28.08,0,0,1,6.92-6.11c-.16.05-.22.08-.16.08a.24.24,0,0,1,.16-.08.07.07,0,0,1,.08-.08c1.13-1.18,2.25-2.34,3.38-3.46q6.75-8.44,5.31-9.9c-.38-.48-.54-.83-.48-1s.51-.38,1.36-.33a14.41,14.41,0,0,1,8.77,3.3,3.2,3.2,0,0,1,1.45,2.5A2.66,2.66,0,0,1,517,342.6q-7.4,3.78-8,5.07-.24.07-11.35,6.84a2.85,2.85,0,0,0-.8.4c-3.17,1.29-4.86,2.25-5.07,2.9q.31,3.54,3.06,11.58A125.18,125.18,0,0,1,499.12,385.56Z" transform="translate(-0.76 -330.44)"/><path class="cls-9" d="M560.42,351.29a12.4,12.4,0,0,1-.57,3.14,5.25,5.25,0,0,0-.24,1.61q.4.56,4.59-1.21a8.4,8.4,0,0,1,1.77-.64,59.17,59.17,0,0,1,1-9.74,12,12,0,0,0-.16-3.3c-.27-1.07-.51-1.61-.72-1.61s-.43.19-.64.57q-1.21,1.44-1.29-1.77c-.16-2,.8-2.87,2.9-2.5q2.33.48,4.26,3.62c1.61,2.58,2.22,4.54,1.85,5.88q-4.26,13.43-3.22,33.3.81,17.22,0,21.57c-.54,2.78-1.07,4.15-1.61,4.1s-1.55-1.45-2.73-4.35a15.52,15.52,0,0,1-.65-1.61c-1.18-3.7-1.36-5.79-.56-6.27q.89-.65,1.13-19-2.82,1.21-4.83,2.25c.43.22.67.43.72.65a2,2,0,0,1-.24,1.61c-.43,1.07-1,2.84-1.85,5.31q-3.62,11.5-9,17-.64.65-1,.33a2.9,2.9,0,0,1-.65-2c0-4.77.65-7.26,1.93-7.48a1.86,1.86,0,0,0,.89-.8,46.72,46.72,0,0,0,3.78-12.07,24.64,24.64,0,0,0-3.22,1.69c-.91.59-1.72.37-2.41-.64-.92-1.34-1.72-2.61-2.42-3.79s-.56-1.82.41-1.77a23.63,23.63,0,0,0,3.94-.64q12.3-5.72,14-5.23c0-3.06,0-5.74.08-8a65.65,65.65,0,0,0-12.88,7.64c-1.07.75-2.2.05-3.37-2.09q-3.3-6.19,1.52-6.92a4.27,4.27,0,0,0,2.1-1.05,8.44,8.44,0,0,0,2.25-2.33q.72-7.41-1.93-10.06a3.55,3.55,0,0,1-.16-1.53c.1-.64,1.28-.77,3.54-.4s3.24,1,3.3,1.93A16.49,16.49,0,0,1,560.42,351.29Zm12.31,13.76c-1.18-3.11-1.13-4.7.16-4.75.69-.11,1.77-1.31,3.22-3.62q2.32-4.35.8-5.55c-1.29-1.18-1-1.58,1-1.21a8.54,8.54,0,0,1,4.18,1.77,2.16,2.16,0,0,1,.32,3c-.59.86-1.12,1.72-1.61,2.57h.08c.16.11.51,0,1-.32,2.3-1.39,4.42-2.82,6.35-4.26.06-1.77.11-3.33.17-4.67a24.72,24.72,0,0,0-3.95,1.93c-.59.38-1.52.06-2.81-1a9.1,9.1,0,0,1-3.22-3.95c-.7-1.71-.62-2.25.24-1.61q2.18,1.53,9.17-1.12a1,1,0,0,1,.57-.16,13.25,13.25,0,0,0-1.37-5.31,11.13,11.13,0,0,1-1.69-3.86q-.4-3.3,1.13-2.26a2.64,2.64,0,0,0,2.17.57A2.87,2.87,0,0,1,591,332q3.06,2.41,3.06,8.45c2.3-1,4.1-1.18,5.39-.65a7.87,7.87,0,0,1,3.14,2.82c.59,1.13-.08,1.8-2,2a18.25,18.25,0,0,0-6.83,1.37q-.65,11.75-.65,17.78a37.64,37.64,0,0,1,7-.72,17.51,17.51,0,0,0,5.23-.57c1.29-.59,2.76.08,4.43,2,1.44,1.45,2.19,2.61,2.25,3.46s-.08,1.32-.4,1.53-.92.22-1.93,0q-12.15-3.45-34,4.27a4,4,0,0,1-3.54-.65,1.92,1.92,0,0,1-1-1.93,4.29,4.29,0,0,1,1.12-2.57c.7-.81,1-.86,1-.16s.35.85,1.05.64a71,71,0,0,1,13.19-4.18.51.51,0,0,1,.08-.33q.17-5.22.48-9.33a60.46,60.46,0,0,0-3.37,6.2c-1,2.36-1.48,3.56-1.53,3.62-.27.1-.68-.16-1.21-.81a13.24,13.24,0,0,1-2.74-4.74q-2.57,3.78-4.74,6.43C573.85,366.52,573.26,366.23,572.73,365.05Zm2.09,14.16a15.92,15.92,0,0,0,0-2.34c-.16-.32-.14-.51.08-.56s.51,0,.72.32c1.08,1.88,2,3.49,2.66,4.83q1.61-6,8.61-7.48,10.38-2.89,11.58-2.34c4.19-.64,6.84-.48,8,.49q3.62,2.33,3.86,3.86a3.73,3.73,0,0,1-.48,2.57q-1.29,2.34-2,8.69a73.09,73.09,0,0,1-1.13,7.32q-2.34,7.56-5.79,8.85c-.22.06-.41-.08-.57-.4a7.29,7.29,0,0,0-1-1.21,9.7,9.7,0,0,1-2.58-2.57,24.84,24.84,0,0,0-13.92,3.7,1.55,1.55,0,0,1-2.09,0q-5.55-5-6-18.5A29.93,29.93,0,0,1,574.82,379.21Zm27.84-1c0-1.23-.25-2-.73-2.33a2.35,2.35,0,0,0-1.29-.49,17.91,17.91,0,0,0-9.25,1.77,14.31,14.31,0,0,1-5.31,1.37c-1.66-.1-4,1.37-7.08,4.43a9.82,9.82,0,0,1,1.13,3.46,59.43,59.43,0,0,0,.64,9c.11.43.24.67.41.72,1.87.65,5.09.24,9.65-1.2a18.66,18.66,0,0,1,5.39-1.53,3.34,3.34,0,0,1,2.9,1.2c1-.53,1.93-2.92,2.73-7.16A50.18,50.18,0,0,0,602.66,378.16Zm-6.36,1.69q2.82,1.93,2.82,3.22A3.28,3.28,0,0,1,598,385.4a15,15,0,0,0-1.13,1.93,8.61,8.61,0,0,1-1,1.69,2.4,2.4,0,0,1,.4,1.37,1.31,1.31,0,0,1-1,.72c-3.86,1.4-6.19,2.28-7,2.66a1.22,1.22,0,0,1-1.6-.4q-2.5-1-3.54-4.83c-.86-2.52-.73-4.43.4-5.71.86-1.34,1.26-1.37,1.21-.08a5.34,5.34,0,0,0,.08.8q2.81-2.9,9.33-3.86A4.56,4.56,0,0,1,596.3,379.85Zm-9.9,8.93.65-.16c.48-.11,1.47-.43,3-1a5.43,5.43,0,0,1,1.77-.56,6.75,6.75,0,0,0,.81-2.41.84.84,0,0,0-.16-.32c-.16-.06-.27-.06-.32,0a12.62,12.62,0,0,0-2.18.8l-2.41.16a3.41,3.41,0,0,1-1.13,0,3.16,3.16,0,0,0-1.2-.32,1.75,1.75,0,0,1,.32.8C585.89,386.93,586.19,387.92,586.4,388.78ZM609,358.45c.16,1.5,0,2.36-.56,2.57q-1.37.24-3.86-2.17a17.8,17.8,0,0,0-3.46-2.81,73.37,73.37,0,0,1-4.91,5.95c-.7.59-1.24.3-1.61-.89-1-2.94-.94-4.45.24-4.5q1-.08,3.3-3.54c1.56-2.95,1.82-4.83.81-5.63q-1.94-1.77,1-1.21a8.66,8.66,0,0,1,4.35,1.93,2.43,2.43,0,0,1,.24,3.14,14.33,14.33,0,0,0-1.13,1.61c2.41.54,4,1.15,4.67,1.85A6.39,6.39,0,0,1,609,358.45Z" transform="translate(-0.76 -330.44)"/></svg>